# xmcd
#
# Track frame offsets:
# 150
# 12462
# 35224
# 52209
# 70779
# 86978
# 102092
# 122529
# 138957
# 155238
# 169149
# 186759
# 200188
# 213137
#
# Disc length: 3025 seconds
#
#
# Revision: 5
# Processed by: cddbd v1.5PL3 Copyright (c) Steve Scherf et al.
# Submitted via: FreeRIP 2.60 
#
DISCID=d30bcf0e
DTITLE=Capital Inicial - Rosas e Vinho Tinto
DYEAR=2002
DGENRE=Rock
TTITLE0=220 Volts
TTITLE1=À Sua Maneira
TTITLE2=Como Devia Estar
TTITLE3=Inocente
TTITLE4=Enquanto Eu Falo
TTITLE5=Algum Dia
TTITLE6=Quatro Vezes Você
TTITLE7=Pra Niguém
TTITLE8=Olhos Vermelhos
TTITLE9=Mais
TTITLE10=Incondicionalmente
TTITLE11=Falar De Amor Não É Amar
TTITLE12=Rosas e Vinho Tinto
TTITLE13=Isabel
EXTD=YEAR: 2002 ID3G: 17
EXTT0=
EXTT1=
EXTT2=
EXTT3=
EXTT4=
EXTT5=
EXTT6=
EXTT7=
EXTT8=
EXTT9=
EXTT10=
EXTT11=
EXTT12=
EXTT13=
PLAYORDER=
